<svg width="24" height="32" viewBox="0 0 24 32" fill="none" xmlns="http://www.w3.org/2000/svg">
<path d="M12 32C11.12 32 10.3667 31.6867 9.74 31.06C9.11333 30.4333 8.8 29.68 8.8 28.8H15.2C15.2 29.68 14.8867 30.4333 14.26 31.06C13.6333 31.6867 12.88 32 12 32ZM5.6 27.2V24H18.4V27.2H5.6ZM6 22.4C4.16 21.3067 2.7 19.84 1.62 18C0.54 16.16 0 14.16 0 12C0 8.66667 1.16667 5.83333 3.5 3.5C5.83333 1.16667 8.66667 0 12 0C15.3333 0 18.1667 1.16667 20.5 3.5C22.8333 5.83333 24 8.66667 24 12C24 14.16 23.46 16.16 22.38 18C21.3 19.84 19.84 21.3067 18 22.4H6Z" fill="#D7DE36"/>
</svg>
