<svg width="20" height="20" viewBox="0 0 20 20" fill="none" xmlns="http://www.w3.org/2000/svg">
<path d="M7.5 14.7915C7.41667 14.7915 7.34167 14.7748 7.25833 14.7415C7.025 14.6498 6.875 14.4165 6.875 14.1665V9.1665C6.875 8.82484 7.15833 8.5415 7.5 8.5415C7.84167 8.5415 8.125 8.82484 8.125 9.1665V12.6582L8.725 12.0582C8.96667 11.8165 9.36667 11.8165 9.60833 12.0582C9.85 12.2998 9.85 12.6998 9.60833 12.9415L7.94167 14.6082C7.825 14.7248 7.65833 14.7915 7.5 14.7915Z" fill="#13204B"/>
<path d="M7.50003 14.7915C7.3417 14.7915 7.18337 14.7332 7.05837 14.6082L5.3917 12.9415C5.15003 12.6999 5.15003 12.2999 5.3917 12.0582C5.63337 11.8165 6.03337 11.8165 6.27503 12.0582L7.9417 13.7249C8.18337 13.9665 8.18337 14.3665 7.9417 14.6082C7.8167 14.7332 7.65837 14.7915 7.50003 14.7915Z" fill="#13204B"/>
<path d="M12.5001 18.9582H7.50008C2.97508 18.9582 1.04175 17.0248 1.04175 12.4998V7.49984C1.04175 2.97484 2.97508 1.0415 7.50008 1.0415H11.6667C12.0084 1.0415 12.2917 1.32484 12.2917 1.6665C12.2917 2.00817 12.0084 2.2915 11.6667 2.2915H7.50008C3.65841 2.2915 2.29175 3.65817 2.29175 7.49984V12.4998C2.29175 16.3415 3.65841 17.7082 7.50008 17.7082H12.5001C16.3417 17.7082 17.7084 16.3415 17.7084 12.4998V8.33317C17.7084 7.9915 17.9917 7.70817 18.3334 7.70817C18.6751 7.70817 18.9584 7.9915 18.9584 8.33317V12.4998C18.9584 17.0248 17.0251 18.9582 12.5001 18.9582Z" fill="#13204B"/>
<path d="M18.3334 8.95841H15.0001C12.1501 8.95841 11.0417 7.85007 11.0417 5.00007V1.66674C11.0417 1.41674 11.1917 1.18341 11.4251 1.09174C11.6584 0.991739 11.9251 1.05007 12.1084 1.22507L18.7751 7.89174C18.9501 8.06674 19.0084 8.34174 18.9084 8.57507C18.8084 8.8084 18.5834 8.95841 18.3334 8.95841ZM12.2917 3.17507V5.00007C12.2917 7.15007 12.8501 7.70841 15.0001 7.70841H16.8251L12.2917 3.17507Z" fill="#13204B"/>
</svg>
