<svg width="23" height="23" viewBox="0 0 23 23" fill="none" xmlns="http://www.w3.org/2000/svg">
<path d="M9.30556 21.2772H7.27607C6.91132 21.2772 6.18183 21.1649 5.76096 20.7534L4.17103 19.5283L5.03146 18.4152L6.68686 19.6966C6.80844 19.7995 7.06096 19.8743 7.27607 19.8743H9.30556C9.6516 19.8743 10.0444 19.5844 10.1192 19.2851L11.4192 15.329C11.4566 15.2355 11.4847 15.0952 11.4192 14.9923C11.3631 14.9081 11.2322 14.8614 11.0732 14.8614H8.93147C8.56672 14.8614 8.23003 14.7024 7.98686 14.4312C7.74369 14.1506 7.64082 13.7951 7.69693 13.4117L7.96815 11.6908C8.00556 11.5318 7.89333 11.3354 7.74369 11.2886C7.62211 11.2419 7.41635 11.3261 7.36959 11.3916L5.17175 14.6556L4.00269 13.8699L6.19118 10.6059C6.60269 9.98865 7.50053 9.70814 8.19262 9.97001C8.98758 10.2319 9.51132 11.1297 9.32427 11.9527L9.09046 13.4491H11.0451C11.6717 13.4491 12.2142 13.711 12.5415 14.1786C12.8595 14.6276 12.925 15.2167 12.7192 15.7779L11.4379 19.6686C11.2509 20.5477 10.2969 21.2772 9.30556 21.2772Z" fill="#6EBF62"/>
<path d="M3.47894 20.688H2.94585C1.48686 20.688 1.17822 19.7527 1.17822 18.9671V13.7297C1.17822 12.9441 1.48686 12.0088 2.94585 12.0088H3.47894C4.93793 12.0088 5.24657 12.9441 5.24657 13.7297V18.9671C5.24657 19.7527 4.93793 20.688 3.47894 20.688ZM2.60916 19.2476C2.61851 19.2476 2.71203 19.2851 2.93649 19.2851H3.46959C3.71275 19.2851 3.79693 19.2476 3.81563 19.2383C3.81563 19.2289 3.84369 19.1635 3.84369 18.9671V13.7297C3.84369 13.5333 3.81563 13.4585 3.80628 13.4491C3.80628 13.4678 3.71275 13.4117 3.47894 13.4117H2.94585C2.70268 13.4117 2.61851 13.4491 2.5998 13.4585C2.5998 13.4678 2.57175 13.5333 2.57175 13.7297V18.9671C2.57175 19.1635 2.5998 19.2383 2.60916 19.2476Z" fill="#6EBF62"/>
<path d="M14.7865 12.5696C14.5994 12.5696 14.4124 12.5416 14.2347 12.4761C13.4397 12.2142 12.916 11.3164 13.103 10.4934L13.3369 8.997H11.3822C10.7556 8.997 10.2131 8.7351 9.88577 8.26747C9.56779 7.81855 9.50232 7.22938 9.70807 6.66823L10.9894 2.77755C11.2045 1.89841 12.1678 1.16895 13.1498 1.16895H15.1793C15.5441 1.16895 16.2735 1.28123 16.6944 1.69274L18.2843 2.91786L17.4239 4.03087L15.7685 2.74947C15.6469 2.64659 15.3944 2.57182 15.1793 2.57182H13.1498C12.8038 2.57182 12.411 2.86176 12.3361 3.16104L11.0361 7.11713C10.9987 7.21066 10.9707 7.35093 11.0361 7.45381C11.0923 7.53798 11.2232 7.58476 11.3822 7.58476H13.5239C13.8887 7.58476 14.2253 7.74371 14.4685 8.01494C14.7117 8.29551 14.8146 8.65099 14.7584 9.03444L14.4872 10.7553C14.4498 10.9143 14.562 11.1107 14.7117 11.1575C14.8426 11.2042 15.039 11.1293 15.0858 11.0545L17.2836 7.79049L18.4527 8.57618L16.2642 11.8402C15.9275 12.2891 15.3476 12.5696 14.7865 12.5696Z" fill="#6EBF62"/>
<path d="M19.5092 10.4375H18.9761C17.5171 10.4375 17.2085 9.50213 17.2085 8.71652V3.47913C17.2085 2.69352 17.5171 1.7583 18.9761 1.7583H19.5092C20.9682 1.7583 21.2768 2.69352 21.2768 3.47913V8.71652C21.2768 9.50213 20.9682 10.4375 19.5092 10.4375ZM18.6394 8.99714C18.6488 8.99714 18.7423 9.03459 18.9668 9.03459H19.4999C19.743 9.03459 19.8272 8.99713 19.8459 8.98778C19.8459 8.97843 19.874 8.91292 19.874 8.71652V3.47913C19.874 3.28273 19.8459 3.21733 19.8366 3.19863C19.8459 3.23604 19.743 3.16118 19.5092 3.16118H18.9761C18.733 3.16118 18.6488 3.19863 18.6301 3.20799C18.6301 3.21734 18.602 3.28273 18.602 3.47913V8.71652C18.602 8.91292 18.6301 8.97844 18.6394 8.99714Z" fill="#6EBF62"/>
</svg>
