<svg width="16" height="16" viewBox="0 0 16 16" fill="none" xmlns="http://www.w3.org/2000/svg">
<path d="M14.5778 7.11111L14.1333 6.13333L13.1556 5.68889L14.1333 5.24444L14.5778 4.26667L15.0222 5.24444L16 5.68889L15.0222 6.13333L14.5778 7.11111ZM12.4444 4.26667L11.7689 2.80889L10.3111 2.13333L11.7689 1.45778L12.4444 0L13.12 1.45778L14.5778 2.13333L13.12 2.80889L12.4444 4.26667ZM5.33333 15.6444C4.94222 15.6444 4.60741 15.5052 4.32889 15.2267C4.05037 14.9481 3.91111 14.6133 3.91111 14.2222H6.75556C6.75556 14.6133 6.6163 14.9481 6.33778 15.2267C6.05926 15.5052 5.72444 15.6444 5.33333 15.6444ZM2.48889 13.5111V12.0889H8.17778V13.5111H2.48889ZM2.66667 11.3778C1.84889 10.8919 1.2 10.24 0.72 9.42222C0.24 8.60444 0 7.71556 0 6.75556C0 5.27407 0.518519 4.01481 1.55556 2.97778C2.59259 1.94074 3.85185 1.42222 5.33333 1.42222C6.81482 1.42222 8.07407 1.94074 9.11111 2.97778C10.1481 4.01481 10.6667 5.27407 10.6667 6.75556C10.6667 7.71556 10.4267 8.60444 9.94667 9.42222C9.46667 10.24 8.81778 10.8919 8 11.3778H2.66667Z" fill="#6EBF62"/>
</svg>
