<svg width="22" height="22" viewBox="0 0 22 22" fill="none" xmlns="http://www.w3.org/2000/svg">
<g opacity="0.5">
<path d="M17.3891 20.8543H4.55579C1.11829 20.8543 1.11829 18.9477 1.11829 17.4168V16.5002C1.11829 15.6202 1.84245 14.896 2.72245 14.896H19.2225C20.1025 14.896 20.8266 15.6202 20.8266 16.5002V17.4168C20.8266 18.9477 20.8266 20.8543 17.3891 20.8543ZM2.72245 16.271C2.59412 16.271 2.49329 16.3718 2.49329 16.5002V17.4168C2.49329 18.9202 2.49329 19.4793 4.55579 19.4793H17.3891C19.4516 19.4793 19.4516 18.9202 19.4516 17.4168V16.5002C19.4516 16.3718 19.3508 16.271 19.2225 16.271H2.72245Z" fill="white"/>
<path d="M18.9934 16.271H2.99756C2.62173 16.271 2.31006 15.9593 2.31006 15.5835V11.9168C2.31006 8.1585 4.97756 4.8585 8.64423 4.07933C9.18506 3.96016 9.75339 3.896 10.3309 3.896H11.6601C12.2467 3.896 12.8151 3.96016 13.3559 4.07933C17.0226 4.86766 19.6809 8.16766 19.6809 11.9168V15.5835C19.6809 15.9593 19.3784 16.271 18.9934 16.271ZM3.68506 14.896H18.3059V11.9168C18.3059 8.80933 16.1059 6.07766 13.0626 5.41766C12.6134 5.31683 12.1459 5.271 11.6601 5.271H10.3309C9.85423 5.271 9.38673 5.31683 8.93756 5.41766C5.89423 6.0685 3.68506 8.80016 3.68506 11.9168V14.896Z" fill="white"/>
<path d="M8.79087 5.436C8.48837 5.436 8.21337 5.23433 8.13087 4.93183C8.05754 4.666 8.02087 4.40016 8.02087 4.12516C8.02087 2.48433 9.35921 1.146 11 1.146C12.6409 1.146 13.9792 2.48433 13.9792 4.12516C13.9792 4.40016 13.9425 4.666 13.8692 4.93183C13.7775 5.28016 13.4292 5.50016 13.0625 5.41766C12.6134 5.31683 12.1459 5.271 11.66 5.271H10.3309C9.85421 5.271 9.38671 5.31683 8.93754 5.41766C8.89171 5.42683 8.84587 5.436 8.79087 5.436ZM10.3309 3.896H11.66C11.9717 3.896 12.2925 3.91433 12.595 3.951C12.5125 3.14433 11.825 2.521 11 2.521C10.175 2.521 9.49671 3.14433 9.40504 3.951C9.71671 3.91433 10.0192 3.896 10.3309 3.896Z" fill="white"/>
<path d="M13.75 10.771H8.25C7.87417 10.771 7.5625 10.4593 7.5625 10.0835C7.5625 9.70766 7.87417 9.396 8.25 9.396H13.75C14.1258 9.396 14.4375 9.70766 14.4375 10.0835C14.4375 10.4593 14.1258 10.771 13.75 10.771Z" fill="white"/>
</g>
</svg>
